<svg id="visual" viewBox="0 0 900 600" width="900" height="600" xmlns="http://www.w3.org/2000/svg" xmlns:xlink="http://www.w3.org/1999/xlink" version="1.1"><rect x="0" y="0" width="900" height="600" fill="#ffffff"></rect><path d="M0 240L21.5 262.3C43 284.7 86 329.3 128.8 364.5C171.7 399.7 214.3 425.3 257.2 417.3C300 409.3 343 367.7 385.8 342.5C428.7 317.3 471.3 308.7 514.2 327.8C557 347 600 394 642.8 412C685.7 430 728.3 419 771.2 408C814 397 857 386 878.5 380.5L900 375L900 601L878.5 601C857 601 814 601 771.2 601C728.3 601 685.7 601 642.8 601C600 601 557 601 514.2 601C471.3 601 428.7 601 385.8 601C343 601 300 601 257.2 601C214.3 601 171.7 601 128.8 601C86 601 43 601 21.5 601L0 601Z" fill="#bbbbbb" stroke-linecap="round" stroke-linejoin="miter"></path></svg>